<?xml version="1.0" encoding="utf-8"?>
<!-- Generator: Adobe Illustrator 19.1.1, SVG Export Plug-In . SVG Version: 6.00 Build 0)  -->
<svg version="1.1" id="Calque_1" xmlns="http://www.w3.org/2000/svg" xmlns:xlink="http://www.w3.org/1999/xlink" x="0px" y="0px"
	 viewBox="0 0 118.4 147" style="enable-background:new 0 0 118.4 147;" xml:space="preserve">
<style type="text/css">
	.st0{fill:#1D1D1B;}
</style>
<g>
	<path class="st0" d="M81,37.3c-11.4-6-28.2-7.6-39.3-0.2c-10.6,7-13.5,21-10.1,32.7c2.1,7.4,6.4,14,11.3,19.8
		c2.1,2.5,4,4.8,5.6,7.5c-0.1,0-0.2,0-0.3,0c-0.1,0-0.1,0.2,0,0.2c0.1,0,0.3,0,0.4,0c0.8,1.5,1.5,3,2,4.7c1.3,4.4,1.5,8.9,1.5,13.4
		c-1.7,0.1-2.9,1.8-2.9,3.4c0,0.7,0.2,1.7,0.7,2.4c-1.5,1.4-1.4,3.6-0.3,5.4c-1.6,3.2-0.1,5.5,2.5,7c3.2,9.5,21.5,9,24-1
		c1.9-1.9,2.7-4.5,1.4-7.8c0-0.1-0.1-0.1-0.1-0.2c0.2-1,0.1-2.2-0.3-3.6c-0.1-0.2-0.2-0.4-0.4-0.5c1.1-2,1-4.4-1.5-6.4
		c-0.1-0.1-0.3-0.2-0.4-0.2c-2.4-17.3,15-28.7,20.6-43.7C100.2,57,93.1,43.6,81,37.3z M50.5,122.1c0.3,0.2,0.6,0.4,0.9,0.6
		c3.8,4.2,13.9,3.6,18.4,2.7c2-0.4,4.1-1.6,5.5-3.1C77.2,133.6,48.1,130.8,50.5,122.1z M63.6,138.6c-3.7-0.1-7.1-1.5-9.6-4
		c3.4,1.4,7.6,2,9.8,2.1c2.7,0.1,6.1-0.5,9-1.8C70.5,137.4,67.5,138.7,63.6,138.6z M76.3,126.9c0.7,5.9-6.8,8.1-11.8,8.1
		c-4.9,0-14.4-0.8-14.1-7.4c2.4,2.4,6.8,3.1,9.9,3.4C64.5,131.5,73.2,130.9,76.3,126.9z M74.7,116C74.7,116,74.7,116,74.7,116
		c2.1,2.6-0.3,6-3.2,7.2c-2.1,0.9-4.5,1-6.8,1c-3.7,0.1-8.8,0-12.1-2.2c0,0,0-0.1-0.1-0.1c-0.8-1-1.8-1.5-1.8-3
		c0-1.1,0.7-1.9,1.4-2.6c0,0.2,0,0.3,0,0.5c0,0,0,0,0,0c-0.2,0.1-0.3,0.3-0.2,0.6c0.3,0.6,1,0.9,1.6,1.2c0.6,0.3,1.3,0.6,1.9,0.5
		c3,1.3,7.3,1.2,9.8,1.1c0.6,0,1.3,0,2.1-0.1c0.2,0.1,0.5,0,0.7-0.1C71,119.8,74.3,119,74.7,116z M59.1,114.3
		c1-4.9,0.2-10.7-0.3-15.2c-0.7-6.3-2.1-12.4-3.8-18.4c-0.4-1.2-0.7-2.8-1.2-4.5c0.9-0.2,1.8-0.4,2.6-0.5c4.2-0.7,8.3-1.5,12.4-2.7
		c0.5-0.1,1-0.3,1.6-0.5c-1.2,4.7-2.1,9.6-2.7,14.4c-1.5,10.5-1.8,21.1-1.1,31.7c-1.5,0.1-3,0-4.1-0.1c-1.5-0.1-2.9-0.3-4.2-0.6
		c0.3-0.7,0.5-1.4,0.7-2.2C59,115.3,59.1,114.8,59.1,114.3z M90.8,75.6c-7.2,12.4-21.5,24-17.5,40c0,0,0,0,0,0.1
		c-0.9,1.7-2.8,2.5-4.8,2.8c-0.7-9.5-0.5-19,0.7-28.5c0.7-6,1.6-12.2,3.4-18.1c4-1.3,8.4-3.4,7.9-7.6c-0.4-3.2-4.2-4.4-6-1.7
		c-0.1,0.1-0.1,0.3-0.1,0.4c-1.8,1.9-2.7,4.8-3.3,7.4c-0.2,0.1-0.4,0.1-0.6,0.2c-2.5,0.8-5,1.4-7.5,2c-2.5,0.5-5.1,1-7.6,1.4
		c-0.7,0.1-1.4,0.2-2,0.3c-0.8-2.2-2-4.1-3.9-5c-2.4-1.1-5.2,0.3-5.1,2.9c-0.5,1.8,1.6,4,3.7,4.4c1.4,0.2,2.8,0.1,4.3-0.2
		c0,0.1,0.1,0.3,0.1,0.4c0.6,1.8,1.1,3.7,1.7,5.5c1,3.7,1.9,7.4,2.6,11.2c0.7,4.2,1.2,8.4,1.3,12.6c0,2.9-0.5,5.8-0.5,8.7
		c0,0.1,0,0.3-0.1,0.4c-0.1,0.7-0.3,1.5-0.4,2.2c0,0,0,0,0,0.1c-1.2-0.3-2.3-0.7-3.5-1.2c0.1-1.7,0.2-3.4,0.1-5.2c0.6,0,1.2,0,1.8,0
		c0.1,0,0.1-0.2,0-0.2c-0.6,0-1.2,0-1.8,0c0-0.8-0.1-1.6-0.2-2.4c0.6,0,1.2,0,1.8,0.1c0.1,0,0.2-0.2,0.1-0.2
		c-0.6-0.2-1.2-0.2-1.9-0.1c-0.1-1.2-0.3-2.3-0.5-3.5c0.6,0,1.2,0,1.7,0c0.1,0,0.1-0.1,0-0.1c-0.6,0-1.2,0-1.8,0
		c-0.2-1.2-0.6-2.4-0.9-3.6c0.8-0.1,1.5-0.1,2.3,0c0.1,0,0.1-0.2,0-0.2c-0.8-0.1-1.6-0.1-2.3,0c-0.3-1-0.7-2-1.1-2.9
		c-0.1-0.3-0.3-0.6-0.4-0.9c0.8,0,1.6,0,2.4,0c0.1,0,0.2-0.2,0-0.2c-0.8-0.1-1.7-0.1-2.6-0.1c-0.6-1.2-1.3-2.3-2-3.3
		c0.8,0,1.6,0,2.5,0c0.2,0,0.2-0.2,0-0.2c-0.9,0-1.7,0-2.6,0c-0.8-1.1-1.7-2.2-2.6-3.3c1.1,0,2.2,0,3.3,0c0.1,0,0.1-0.2,0-0.2
		c-1.2-0.1-2.3-0.1-3.5,0c-1-1.2-2-2.3-2.9-3.5c1.7,0.1,3.4,0.3,5.2,0.4c0.1,0,0.1-0.2,0-0.2c-1.8-0.1-3.6-0.3-5.4-0.4
		c-0.7-0.9-1.4-1.7-2-2.6c1.4,0,2.8,0,4.2,0c0.1,0,0.1-0.2,0-0.2c-1.5,0-2.9,0-4.4,0c-0.1-0.2-0.3-0.3-0.4-0.5
		c-0.8-1.1-1.5-2.3-2.2-3.5c1.2,0.1,2.4,0.1,3.5,0.2c0.2,0,0.2-0.2,0-0.2c-1.2-0.1-2.4-0.1-3.7-0.2c-0.6-1-1.1-2.1-1.6-3.2
		c1.5,0,2.9,0,4.4,0c0.1,0,0.1-0.2,0-0.2c-1.5-0.1-3,0-4.5,0c-0.6-1.3-1.1-2.6-1.6-4c1.5,0,3.1,0.1,4.6,0c0.2,0,0.2-0.3,0-0.3
		c-1.6,0-3.1,0-4.7,0c-0.4-1.2-0.7-2.5-1-3.8c1.4,0,2.8,0,4.2,0c0.2,0,0.2-0.2,0-0.3c-1.4,0-2.9,0-4.3,0c-0.3-1.5-0.5-3-0.7-4.5
		c1.9-0.1,3.9-0.1,5.8,0c0.2,0,0.2-0.3,0-0.3c-1.9-0.1-3.9-0.1-5.8,0.1c-0.1-1.4-0.1-2.8-0.1-4.2c1.5-0.1,2.9-0.2,4.4-0.3
		c0.2,0,0.2-0.3,0-0.3c-1.5,0.1-2.9,0.2-4.4,0.3c0.1-1.6,0.3-3.2,0.6-4.7c1.8,0,3.6,0,5.5,0c0.2,0,0.2-0.3,0-0.3c-1.8,0-3.6,0-5.4,0
		c0.3-1.3,0.7-2.6,1.3-3.9c2.2,0,4.3,0,6.5,0c0.2,0,0.2-0.3,0-0.3c-2.1,0-4.2,0-6.3,0c0.7-1.6,1.5-3.1,2.5-4.5c1.8,0,3.5,0,5.3,0
		c0.2,0,0.2-0.3,0-0.3c-1.7,0-3.4,0-5,0c0.2-0.3,0.4-0.6,0.7-0.9c0.7-0.9,1.5-1.7,2.3-2.5c2.1-0.2,4.2-0.3,6.2-0.3
		c0.2,0,0.2-0.3,0-0.3c-2-0.1-3.9,0-5.9,0.2c1.4-1.2,2.9-2.2,4.5-3.1c2.4,0,4.8,0,7.2,0.2c0.2,0,0.2-0.4,0-0.4
		c-2.2-0.2-4.3-0.2-6.5-0.2c10-4.8,23.4-3.3,33,1.2c6.6,3.1,12.1,8.1,14.9,14.9C96.6,60.6,94.9,68.6,90.8,75.6z M73.3,69.7
		c0.7-2.1,1.6-4.1,2.7-6c3,0.7,3.5,1.8,1.5,3.2c-0.5,0.9-1.3,1.6-2.3,1.9C74.7,69.2,74,69.5,73.3,69.7z M51.6,74.7
		c-0.2,0-0.4,0.1-0.6,0.1c-1.6,0.2-4.9-0.5-5.3-2.1C49,71.2,51,71.8,51.6,74.7C51.6,74.6,51.6,74.6,51.6,74.7z"/>
	<path class="st0" d="M23.8,61c-0.3-1.1-0.4-2.1-0.4-3.2c0,0,0-0.1,0-0.1c0-0.1,0-0.3-0.2-0.4c-0.1-0.1-0.2-0.2-0.3-0.2
		c-4.1-2.8-10-3.6-14.9-4.3c-0.7-0.1-1.1,0.6-0.9,1.1c0,3.3,0.4,6.7,1.5,9.8c0.2,0.5,0.8,0.6,1.1,0.3c1.9,0,3.8-0.6,5.7-1
		c2.5-0.5,5-0.8,7.5-1.1C23.5,62,23.9,61.6,23.8,61z M10,63.1c-0.3-2.8-0.7-5.6-0.9-8.4c4.1,1.3,8.6,2,12.8,3c0,0,0,0,0,0
		c-0.1,1,0,1.8,0.2,2.7C18.2,61,13.4,61.3,10,63.1z"/>
	<path class="st0" d="M39.6,32.9c-2.6-4.6-5-9.2-7.6-13.7c-0.3-0.5-0.8-0.5-1.1-0.3c-0.2-0.1-0.5-0.1-0.8,0
		c-3.1,1.3-5.8,4.1-7.8,6.8c-0.4,0.5,0.1,1,0.6,1.2c3.1,2.8,6.8,5,10,7.6c2.5,2,3.4,1,6.3-0.3C39.8,33.9,39.9,33.2,39.6,32.9z
		 M33.3,32.4c-1-0.7-2-1.5-3-2.3c-2-1.4-4-2.9-6.3-3.9c2.1-2.1,4.5-3.8,6.9-5.6c2.1,4.2,4.4,8.2,6.7,12.3C36,33.5,35,33.5,33.3,32.4
		z"/>
	<path class="st0" d="M59.2,8.3c-0.1-0.3-0.4-0.6-0.7-0.7c-2.8-0.5-6.2,0.7-9.2,0.7c-0.9,0-1.2,1.1-0.7,1.7
		c-0.2,0.1-0.3,0.3-0.2,0.5c1.4,5,2.7,9.9,3.5,15c0.1,0.4,0.5,0.7,0.9,0.7c4,0.1,5.1,0.6,5.6-3.5c0.3-2.6,0.5-5.2,0.7-7.8
		C59.2,12.8,59.6,10.3,59.2,8.3z M57.2,13.5c-0.1,2.2-0.3,4.4-0.5,6.5c-0.3,3-0.4,4.1-3.1,4.3c-0.8-4.8-2-9.6-4.2-14
		c2,0,4-0.1,6-0.4C58,9.5,57.3,11.3,57.2,13.5z"/>
	<path class="st0" d="M92,14.4c-1.2-1.1-2.7-1.8-4.1-2.6c-1.5-0.9-3.1-1.7-4.7-2.4c-0.4-0.2-0.9,0.2-0.8,0.5c-0.1,0-0.2,0.1-0.2,0.2
		c-2.4,4.5-4.1,9.4-5.9,14.2c-1.1,3,0.4,3.4,3.3,4.4c0.2,0.1,0.3,0,0.4,0c0.1,0,0.2,0,0.3-0.1c2.3-1.5,4.4-3.5,6.3-5.5
		c1.8-2,4-4.3,5.1-6.7c0.1-0.1,0.1-0.3,0.1-0.4C92.2,15.7,92.5,14.9,92,14.4z M85,21.7c-1.6,1.8-3.2,3.6-4.9,5.4c0,0,0,0,0,0
		c-0.6-0.4-1.2-0.8-1.8-1c-1.2-0.2-1.3-0.6-0.2-1.2c0.1-1.4,1.2-3.2,1.7-4.5c1.2-3.2,2.5-6.4,3.3-9.7c1.1,0.9,2.3,1.8,3.5,2.6
		c1.1,0.7,2.2,1.6,3.3,2.2C88.2,17.3,86.7,19.7,85,21.7z"/>
	<path class="st0" d="M112.7,35.6c0-0.1,0-0.2,0-0.4c-0.3-1.6-1.9-3-2.9-4.1c-1.3-1.4-2.6-2.8-4.1-4c-0.3-0.2-0.5-0.2-0.7-0.1
		c-0.2,0-0.3,0-0.5,0.2c-2.3,1.8-4.4,4-6.5,6.1c-1.3,1.3-3.5,2.8-3.8,4.8c-0.3,0.1-0.6,0.5-0.4,0.8c0.4,0.8,0.9,1.5,1.3,2.3
		c0.3,0.7,0.5,1.6,1.2,2c0.3,0.2,0.7,0.1,0.9-0.2c0,0,0.1,0,0.1,0c5.1-1.5,10.1-3.5,15.1-5.5C113.1,37.2,113.2,36.1,112.7,35.6z
		 M97,41.6c-0.2-0.4-0.5-0.8-0.7-1.2c-0.4-0.6-0.9-1.3-1.4-1.8c0,0,0,0,0,0c0.4-1.2,1.8-2,2.7-2.8c0.9-0.8,1.8-1.6,2.7-2.4
		c1.7-1.5,3.5-3,5-4.7c1,1.3,2,2.6,3,3.9c0.8,1,1.5,2.4,2.4,3.2C106.2,37.5,101.5,39.4,97,41.6z"/>
	<path class="st0" d="M117.7,64c-5.1-1.5-10.2-2.8-15.5-3.5c-0.3,0-0.4,0.1-0.5,0.3c-0.2,0.1-0.3,0.2-0.4,0.4
		c-0.3,0.8-0.5,1.6-0.7,2.4c-0.3,0.8-0.7,1.5-1,2.3c-0.2,0.6,0.1,1.1,0.6,1.2c1.5,2,3.1,3.8,4.9,5.5c1.8,1.7,3.8,3.9,6.1,5
		c0.3,0.2,0.6,0.1,0.8,0c0.3,0.1,0.7-0.1,0.9-0.5c1.7-3.8,3.5-7.6,5.3-11.5C118.6,64.9,118.4,64.2,117.7,64z M111.7,75.3
		c-1.5-1.5-3.4-2.9-5-4.3c-1.7-1.5-3.3-3.1-5.1-4.5c0.8-1.3,1.2-3.2,1-4.7c4.4,1.4,8.9,2.6,13.4,3.9
		C114.5,68.9,113.1,72.1,111.7,75.3z"/>
	<path class="st0" d="M102,96.1c-1.1-1.8-4.4-2.9-6.1-3.9c-2.5-1.4-5-3-7.7-3.8c-0.2,0-0.3,0-0.4,0.1c-0.3-0.1-0.5,0-0.8,0.2
		c-0.5,0.5-0.9,1.2-1.3,1.8c-0.4,0.6-0.9,1.2-1.3,1.9c-0.2,0.3-0.1,0.6,0.2,0.8c0.4,2.1,2.4,3.9,3.6,5.6c1.4,1.9,2.8,4.3,4.6,5.9
		c0.1,0.1,0.3,0.2,0.5,0.2c0.1,0.1,0.2,0.2,0.4,0.2c1.9-0.2,3.3-1.9,4.5-3.2c1-1.2,2.4-2.6,3.1-4.1C101.9,97.5,102.4,96.7,102,96.1z
		 M97.2,99.7c-1,1.3-1.9,2.8-3.2,3.8c-1-2.1-2.7-3.9-4.1-5.6c-1.3-1.6-2.7-3.7-4.5-4.7c0.6-0.5,1-1,1.5-1.6c0.5-0.6,1-1.2,1.3-1.8
		c0-0.1,0.1-0.2,0.1-0.3c1.6,1.4,3.4,2.5,5.2,3.7c1.1,0.7,2.3,1.4,3.4,2.1c0.6,0.4,1.6,0.8,2.4,1.3C98.6,97.5,97.9,98.7,97.2,99.7z"
		/>
	<path class="st0" d="M32.4,82.1c-0.5-0.7-1.2-1.2-1.7-1.9c-0.5-0.7-1.1-1.4-1.5-2.1c0,0,0-0.1-0.1-0.1c-0.1-0.1-0.2-0.1-0.3-0.1
		c-2.3,0.2-4.5,1.2-6.7,2c-2.2,0.9-4.5,1.6-6.5,2.7c-0.4,0.2-0.4,0.7-0.2,1C15.2,83.8,15,84,15,84.2c-0.6,1.4,0.8,3.8,1.5,5
		c1,1.8,2.3,4,4.1,5.1c0.5,0.3,1,0,1.2-0.4c0.3,0,0.5,0,0.8-0.3c1.8-1.9,3.8-3.6,5.8-5.3c1.7-1.4,3.5-3.1,4.2-5.3c0,0,0-0.1,0-0.1
		C32.6,82.6,32.6,82.4,32.4,82.1z M26.1,87.4c-1.8,1.4-3.7,2.9-5.1,4.8c-1.8-2.4-4.2-4.8-4.8-7.8c0-0.1,0.1-0.2,0-0.3
		c0,0-0.1-0.1-0.1-0.1c0,0,0,0,0,0c2.4-0.6,4.7-1.6,6.9-2.5c1.9-0.8,3.9-1.4,5.6-2.6c0.3,1.5,1.2,3.1,2.5,4
		C29.4,84.4,27.8,86,26.1,87.4z"/>
	<path class="st0" d="M46.4,97.9c-0.2-0.7-1.1-1-1.7-1.4c-0.7-0.4-1.3-1-1.9-1.4c-0.3-0.2-0.7-0.1-0.8,0.2c-0.1-0.1-0.3-0.1-0.4,0
		c-3.8,2.6-8.2,5.1-11.5,8.3c-0.4,0.4-0.3,0.9,0,1.3c0.4,1.7,2,3,3.3,4c1.6,1.2,3.8,2.8,5.9,2.7c0.6,0,0.9-0.7,0.6-1.1
		c0.4,0.1,0.8,0,1-0.4c2.2-3.4,4.2-7.7,5.4-11.6c0-0.1,0-0.1,0-0.2C46.4,98.2,46.4,98.1,46.4,97.9z M39.3,109.5
		c-0.1,0.2-0.1,0.4,0,0.6c-1.3-0.7-2.9-1.1-4.2-2c-1.2-0.8-2.7-1.9-3.6-3.1c3.9-2.2,7.4-5.8,10.7-8.8c0,0,0,0,0-0.1
		c0.4,0.6,0.9,1.2,1.5,1.7c0.4,0.3,0.9,0.8,1.4,1C42.8,101.9,40.6,105.8,39.3,109.5z"/>
</g>
</svg>
