<?xml version="1.0" encoding="utf-8"?>
<!-- Generator: Adobe Illustrator 19.1.1, SVG Export Plug-In . SVG Version: 6.00 Build 0)  -->
<svg version="1.1" id="Calque_1" xmlns="http://www.w3.org/2000/svg" xmlns:xlink="http://www.w3.org/1999/xlink" x="0px" y="0px"
	 viewBox="0 0 144.3 118.6" style="enable-background:new 0 0 144.3 118.6;" xml:space="preserve">
<style type="text/css">
	.st0{fill:#1D1D1B;}
	.st1{fill:none;stroke:#1D1D1B;stroke-width:0;stroke-linecap:round;stroke-linejoin:round;}
</style>
<g>
	<path class="st0" d="M96.6,25.8c0-1.2,0.9-14.8-2.7-12.3c0,0,0,0,0,0c-11.1-0.9-22.3-0.8-33.5-0.9c-11-0.1-22.5-0.7-33.5,0.6
		c0,0,0,0,0,0c-0.5-0.1-1,0.1-1.1,0.7c-0.6,13.4-0.2,26.8,0.7,40.2c0,0.6,0.1,1.1,0.1,1.7c0,0.2,0.1,0.4,0.3,0.5c0,0,0,0,0,0
		c-0.7,0-0.7,1,0,1c11.4,0.5,23-0.2,34.4-0.5c11.5-0.3,23-0.4,34.4-1c0.5,0,0.8-0.5,0.8-0.9c0.3,0,0.5-0.2,0.5-0.5
		C97.9,45,96.9,35.2,96.6,25.8z M95.8,54.2c-11.5,0.3-22.9,0.9-34.4,1.2c-11,0.3-22.2,0.1-33.1,0.8c0.1-0.1,0.1-0.3,0.1-0.5
		c-0.1-1.1-0.1-2.1-0.2-3.2c14,0.7,28.2,1.1,42.2,0.6c0.2,0,0.2-0.4,0-0.4c-14-0.7-28.2-0.7-42.2-0.6c0-0.8-0.1-1.6-0.1-2.3
		c0.6-0.2,2.4,0.1,3,0.1c1.2,0,2.5,0,3.7,0c2.2,0,4.4,0,6.7,0c4.4,0.1,8.9,0.3,13.3,0.3c0.2,0,0.2-0.4,0-0.4
		c-5.4-0.5-10.9-0.5-16.3-0.5c-2.5,0-4.9,0-7.4,0.1c-0.8,0-2.1-0.2-3,0.2c0-1-0.1-2-0.1-3c6,0,12.1,0.3,18.2,0.1
		c0.2,0,0.1-0.2,0-0.2c-6-0.5-12.1-0.3-18.2-0.1c-0.1-1.4-0.1-2.8-0.1-4.2c12,0.7,24.4,0.8,36.4,0.2c0.2,0,0.2-0.3,0-0.4
		c-12.1-0.5-24.4-0.5-36.5-0.2c0-1.4-0.1-2.7-0.1-4.1c11-0.2,22,0,33-0.1c0.3,0,0.2-0.4,0-0.4c-10.8-0.9-22.1-0.6-33,0.3
		c0-1.5-0.1-2.9-0.1-4.4c3.9-0.1,7.7-0.2,11.6-0.3c4.2-0.1,8.6-0.7,12.8,0c0.2,0,0.3-0.3,0.1-0.3c-3.5-1.2-7.7-0.4-11.3-0.2
		c-4.4,0.2-8.8,0.3-13.1,0.6c0-1.7,0-3.3-0.1-5c8.9-0.1,17.9,0.1,26.8-0.4c0.3,0,0.3-0.4,0-0.4c-8.9-0.3-17.9,0.1-26.8,0.5
		c0-1.6,0-3.2,0-4.8c5.1-0.1,10.2,0,15.2-0.4c0.2,0,0.2-0.4,0-0.4c-5.1-0.1-10.2,0.3-15.2,0.5c0-1.4,0-2.9,0-4.3
		c7.4,0.3,15,0.4,22.4,0.1c0.3,0,0.3-0.5,0-0.5c-7.5-0.1-15,0-22.4,0.1c0-1.2,0-2.3,0-3.5c10.9,0.8,22,0,32.9,0
		c11.2,0.1,22.3,0.7,33.5,0.6c0,0,0.1,0,0.1,0c0.2,0.1,0.5,0.1,0.7-0.1c-0.9,0.7,0.1,7.7,0.2,9.3c0.1,3.5,0.2,7.1,0.3,10.6
		c0.2,6.4,0,13,0.9,19.4C96,54.3,95.9,54.2,95.8,54.2z"/>
	<path class="st1" d="M27.3,56.6C27.4,56.6,27.4,56.6,27.3,56.6"/>
	<path class="st0" d="M61.5,7.9c-0.1,0-0.2,0.1-0.3,0.2c-0.7-0.1-1.3,0.6-1.5,1.3c-0.2,1.1,0.5,2.3,1.6,2.4c1.1,0.2,2.2-0.7,2.3-1.8
		C63.9,8.9,62.7,7.7,61.5,7.9z M61.6,10.6c-0.4-0.1-0.7-0.6-0.6-1c0-0.2,0.1-0.4,0.3-0.5C61.4,9,61.5,9,61.6,8.9c0,0,0,0,0,0
		c0.5,0.1,1.1,0.4,1,1C62.7,10.4,62.1,10.7,61.6,10.6z"/>
	<path class="st0" d="M100.2,66.2c-0.2-0.6-0.7-1.1-1-1.6c-0.3-0.5-0.6-1.1-0.9-1.7c-0.2-0.4-0.6-0.3-0.8-0.1
		c-11,0.2-22.1,0.5-33.1,0.8c-0.1-0.1-0.1-0.2-0.2-0.2c-0.3-0.3-0.7-0.1-0.7,0.3c-0.5,0-1,0-1.5,0c-11.8,0.3-23.9-0.4-35.7,0.6
		c-0.4,0-0.4,0.6,0,0.7c-0.2,0.2-0.3,0.5-0.5,0.7c-0.3,0.5-0.6,1-0.9,1.5c-0.1,0.2-0.1,0.3,0,0.4c0,0.1,0.1,0.3,0.3,0.3
		c6,0.6,12.2,0,18.2-0.1c6.3-0.1,12.6-0.2,18.9-0.3c12.4-0.2,24.7-0.1,37.1-0.1c0.5,0,0.7-0.4,0.7-0.8
		C100.2,66.6,100.3,66.4,100.2,66.2z M29.2,67.1c-1,0.1-1.9,0.1-2.8,0.3c0.3-0.3,0.5-0.5,0.7-0.8c0.3-0.4,0.7-0.9,0.6-1.4
		c0.7,0,1.4,0.1,2.1,0.1C29.4,65.7,29.2,66.5,29.2,67.1z M33.2,66.9c-1.1,0-2.2,0.1-3.4,0.1c0.1-0.3,0.2-0.7,0.4-1
		c0.1-0.3,0.3-0.6,0.4-0.9c1,0,1.9,0.1,2.9,0.1c-0.1,0.4-0.2,0.9-0.4,1.4C33.1,66.8,33.1,66.8,33.2,66.9z M37.2,66.9
		c-1.2,0-2.3,0-3.5,0c0,0,0-0.1,0.1-0.1c0.2-0.5,0.3-1,0.4-1.5c1.1,0,2.3,0,3.4,0c-0.2,0.3-0.3,0.7-0.5,1
		C36.9,66.5,37,66.7,37.2,66.9z M41.4,66.8c-1.2,0-2.4,0-3.6,0c0,0,0,0,0.1-0.1c0.2-0.4,0.5-0.9,0.7-1.3c0,0,0-0.1,0-0.1
		c1.2,0,2.3,0,3.5-0.1C41.8,65.7,41.6,66.3,41.4,66.8z M45.3,66.8c-0.6,0-1.3,0-1.9,0c-0.4,0-0.8,0-1.2,0c0.3-0.5,0.6-1,0.7-1.5
		c0,0,0,0,0-0.1c1,0,2-0.1,2.9-0.1C45.6,65.7,45.5,66.3,45.3,66.8z M49.8,66.7c-1.2,0-2.3,0-3.5,0c0.2-0.5,0.5-1.1,0.5-1.6
		c1.1,0,2.2-0.1,3.3-0.1C49.8,65.5,49.8,66.1,49.8,66.7z M53.4,66.7c-1,0-1.9,0-2.9,0c0-0.2,0.1-0.4,0.1-0.6
		c0.1-0.4,0.3-0.7,0.3-1.1c0.9,0,1.7,0,2.6-0.1C53.3,65.5,53.3,66.1,53.4,66.7z M54.3,66.7c0-0.4,0-0.8,0.1-1.2
		c0-0.2,0.1-0.4,0.1-0.5c0.8,0,1.7,0,2.5-0.1c-0.1,0.5,0,1.2,0.2,1.8C56.3,66.6,55.3,66.6,54.3,66.7z M57.8,66.6c0-0.4,0-0.8,0-1.2
		c0-0.2,0.1-0.4,0.1-0.6c0.8,0,1.6,0,2.3,0c-0.1,0.6,0,1.2,0.1,1.8C59.5,66.6,58.7,66.6,57.8,66.6z M61.6,66.6c0,0-0.1,0-0.1,0
		c0.1-0.5,0.2-1.2,0-1.8c0.2,0,0.4,0,0.6,0c0.6,0,1.2,0,1.8,0c0.1,0.1,0.1,0.3,0.2,0.4c0.1,0.4,0.2,0.9,0.3,1.3
		C63.4,66.5,62.5,66.6,61.6,66.6z M65.1,66.5c0-0.6-0.1-1.2-0.2-1.8c0.8,0,1.6,0,2.4,0c0.1,0.6,0.4,1.2,0.7,1.7
		C67.1,66.5,66.1,66.5,65.1,66.5z M69.1,66.5c-0.2-0.4-0.4-0.9-0.5-1.3c0-0.1-0.1-0.3-0.1-0.4c0.8,0,1.6,0,2.4,0
		c0.1,0.2,0.2,0.4,0.3,0.6c0.2,0.4,0.4,0.7,0.5,1.1C70.8,66.4,69.9,66.4,69.1,66.5z M72.4,66.4c-0.2-0.5-0.4-0.9-0.6-1.4
		c0-0.1-0.1-0.2-0.1-0.3c1,0,2,0,3,0c0,0.6,0.3,1.2,0.8,1.7C74.5,66.4,73.5,66.4,72.4,66.4z M76.5,66.3c0,0,0-0.1,0-0.1
		c-0.2-0.3-0.4-0.6-0.5-1c-0.1-0.2-0.1-0.4-0.2-0.6c1.2,0,2.4,0,3.7,0c0.2,0.6,0.5,1.1,0.7,1.7C79,66.3,77.7,66.3,76.5,66.3z
		 M81.2,66.3c0-0.1,0-0.1,0-0.2c-0.2-0.5-0.3-1-0.5-1.4c0.9,0,1.8,0,2.8-0.1c0.1,0.2,0.2,0.4,0.3,0.7c0.2,0.3,0.4,0.7,0.5,1
		C83.3,66.2,82.3,66.3,81.2,66.3z M85.2,66.2C85.2,66.2,85.2,66.2,85.2,66.2c-0.2-0.5-0.4-0.9-0.5-1.4c0-0.1-0.1-0.2-0.1-0.3
		c1,0,2.1,0,3.1-0.1c0.1,0.6,0.5,1.3,0.9,1.7C87.5,66.2,86.4,66.2,85.2,66.2z M89.2,66.2c0.1-0.1,0.1-0.2,0-0.4
		c-0.2-0.4-0.3-0.8-0.4-1.2c0-0.1,0-0.1,0-0.2c1.2,0,2.4-0.1,3.6-0.1c0.1,0.6,0.4,1.3,0.7,1.8c0,0,0,0,0,0
		C91.7,66.1,90.5,66.1,89.2,66.2z M94,66.1c0.1-0.1,0.1-0.3,0.1-0.5c-0.1-0.4-0.2-0.8-0.4-1.2c0,0,0-0.1,0-0.1c1.3,0,2.7-0.1,4-0.1
		c0.1,0.4,0.3,0.7,0.4,1c0.1,0.3,0.3,0.5,0.5,0.8C97.1,66.1,95.5,66.1,94,66.1z"/>
	<path class="st0" d="M106.5,81.5c-1-1.8-2.3-3.4-3.2-5.2c-0.9-1.8-1.7-3.6-2.6-5.4c0.3-0.4,0.1-1.1-0.5-1.1
		c-5.9,0.1-11.8,0.2-17.7,0.3c-0.2-0.3-0.6-0.2-0.7,0c-3.1,0.1-6.3,0.1-9.4,0.1c-0.1-0.1-0.2,0-0.3,0c-1.1,0-2.2,0-3.2,0
		c-0.2-0.3-0.6-0.2-0.9,0c-1.9,0-3.9,0-5.8,0.1c-12.5,0.1-25.1-0.3-37.6,0.3c-0.1,0-0.2,0-0.3,0c-0.1,0-0.1,0-0.2,0
		c-0.2,0-0.3,0.2-0.3,0.3c-2.8,3.7-5.3,7.9-7.3,12.1c-0.1,0.3,0.2,0.6,0.4,0.5c14.7,1.1,29.7,0.3,44.4,0.4c14.9,0,29.7-0.1,44.6-0.7
		c0.6,0,0.7-0.6,0.5-1C106.6,82,106.6,81.7,106.5,81.5z M58,71.5c0.9,0,1.9,0,2.8,0c-0.1,0.6-0.2,1.2-0.2,1.7c0,0,0,0-0.1,0
		c-0.9,0-1.8,0-2.6-0.1C57.9,72.6,58,72.1,58,71.5z M57.7,74.3c0.9,0,1.8,0,2.7,0c0,0.8,0,1.7,0,2.5c-1,0-2,0-2.9,0
		C57.6,76,57.7,75.2,57.7,74.3z M57.4,78c1,0,2,0,3,0c0,0.5,0,1,0,1.5c-1,0-2.1,0-3.1,0C57.4,79,57.4,78.5,57.4,78z M54.1,74.3
		c0.7,0,1.4,0,2.1,0c-0.1,0.8-0.2,1.7-0.2,2.5c-0.8,0-1.5,0-2.3-0.1C53.9,75.9,54,75.1,54.1,74.3z M53.5,78.5c0-0.2,0.1-0.3,0.1-0.5
		c0.8,0,1.6,0,2.4,0c0,0.5,0,1,0,1.5c-0.9,0-1.8,0-2.6,0C53.4,79.2,53.4,78.8,53.5,78.5z M50.8,71.7C50.8,71.6,50.8,71.6,50.8,71.7
		c0.8-0.1,1.6-0.1,2.4-0.1c-0.1,0.5-0.2,0.9-0.3,1.4c-0.8,0-1.6-0.1-2.4-0.1C50.6,72.5,50.7,72.1,50.8,71.7z M46.7,71.9
		c0-0.1,0-0.1,0-0.2c1,0,2,0,3,0c-0.1,0.4-0.3,0.8-0.4,1.2c-0.9,0-1.9-0.1-2.8-0.1C46.5,72.5,46.6,72.2,46.7,71.9z M48.9,74.2
		c-0.2,0.8-0.4,1.6-0.6,2.4c-1,0-2-0.1-3-0.1c0.2-0.8,0.4-1.5,0.7-2.3C47,74.2,47.9,74.2,48.9,74.2z M42.1,71.7c1.1,0,2.2,0,3.3,0
		c-0.1,0.4-0.2,0.7-0.3,1.1c-1,0-2.1-0.1-3.1-0.1C42.1,72.3,42.1,72,42.1,71.7z M44.6,74.2c-0.2,0.7-0.4,1.5-0.6,2.3
		c-1.1,0-2.2-0.1-3.2-0.1c0.3-0.7,0.5-1.4,0.8-2.2C42.6,74.1,43.6,74.2,44.6,74.2z M37.8,71.7c1.1,0,2.2,0,3.3,0
		c-0.2,0.3-0.3,0.6-0.4,1c-1,0-2,0-3,0C37.8,72.3,37.8,72,37.8,71.7z M40.2,74.1c-0.2,0.7-0.4,1.5-0.6,2.1c-1,0-2.1-0.1-3.1-0.1
		c0.3-0.7,0.6-1.4,0.8-2.1C38.3,74.1,39.3,74.1,40.2,74.1z M39.1,77.9c-0.1,0.5-0.3,1-0.4,1.4c-1.2,0-2.4,0-3.6,0
		c0.2-0.5,0.5-1,0.7-1.5C36.9,77.9,38,77.9,39.1,77.9z M33.9,71.6c1,0,1.9,0,2.9,0.1c-0.2,0.3-0.3,0.6-0.5,1c-0.9,0-1.8,0-2.7,0.1
		C33.7,72.3,33.8,72,33.9,71.6z M35.7,74.1c-0.2,0.7-0.4,1.4-0.7,2.1c-0.9,0-1.8,0-2.7,0c0.3-0.7,0.6-1.4,0.8-2
		C34,74.1,34.8,74.1,35.7,74.1z M29,71.5c1.2,0,2.4,0.1,3.7,0.1c-0.2,0.4-0.4,0.8-0.6,1.2c-1.2,0.1-2.5,0.1-3.7,0.2
		C28.7,72.5,28.9,72,29,71.5z M26.7,76.1c0.4-0.7,0.8-1.4,1.2-2c1.2,0,2.5,0,3.7,0c-0.3,0.7-0.6,1.3-0.8,2
		C29.4,76.1,28,76.1,26.7,76.1z M30.2,77.6c-0.2,0.6-0.4,1.2-0.6,1.8c-1.5,0-3,0-4.5,0.1c0.3-0.7,0.7-1.4,1-2.1
		C27.4,77.4,28.8,77.5,30.2,77.6z M25,71.6c0.1-0.1,0.1-0.2,0.1-0.3c0.9,0,1.8,0.1,2.7,0.1c-0.4,0.5-0.9,1.1-1.2,1.7
		c-0.9,0.1-1.7,0.2-2.6,0.3C24.4,72.8,24.7,72.2,25,71.6z M23.7,74.1c0.8,0,1.6,0,2.4,0c-0.4,0.7-0.7,1.4-1,2.1
		c-0.9,0-1.8,0-2.7,0.1C22.8,75.5,23.2,74.8,23.7,74.1z M21.8,77c0.9,0.1,1.8,0.2,2.8,0.2c-0.3,0.8-0.6,1.5-0.8,2.3
		c-1.3,0-2.5,0.1-3.8,0.1C20.6,78.8,21.2,77.9,21.8,77z M22.8,82.6c-1.8,0.1-3.6,0.2-5.3,0.3c0.7-0.9,1.4-1.8,2.1-2.7
		c1.3,0.1,2.6,0.2,3.8,0.3C23.2,81.2,23,81.9,22.8,82.6z M28.5,82.4c-1.6,0-3.2,0.1-4.9,0.1c0.3-0.7,0.6-1.3,0.9-2
		c1.5,0.1,3,0.2,4.6,0.2C28.9,81.4,28.7,81.9,28.5,82.4z M33.1,82.4c-1.3,0-2.6,0-3.9,0c0.3-0.5,0.5-1,0.8-1.6
		c1.1,0,2.1,0.1,3.2,0.1C33.1,81.4,33,81.9,33.1,82.4z M30.8,79.4c0.3-0.6,0.5-1.1,0.8-1.7c1,0,1.9,0.1,2.9,0.1
		c-0.2,0.5-0.4,1-0.7,1.5C32.8,79.3,31.8,79.4,30.8,79.4z M37.8,82.4c-1.3,0-2.6,0-3.8,0c0.1-0.5,0.2-0.9,0.4-1.4c1.3,0,2.5,0,3.8,0
		C38.1,81.5,37.9,81.9,37.8,82.4z M42.5,82.5c-1.3,0-2.6,0-3.9,0c0.2-0.5,0.4-0.9,0.5-1.4c1.2,0,2.5,0,3.7,0
		C42.7,81.5,42.6,82,42.5,82.5z M39.7,79.4c0.2-0.5,0.3-0.9,0.5-1.4c1.1,0,2.3,0,3.4,0c-0.1,0.5-0.2,0.9-0.4,1.4
		C42,79.4,40.9,79.4,39.7,79.4z M47.5,82.5c-1.3,0-2.6,0-4-0.1c0.2-0.5,0.3-1,0.5-1.5c1.2,0,2.4,0,3.6-0.1
		C47.5,81.5,47.5,82,47.5,82.5z M47.8,79.4c-1.1,0-2.2,0-3.3,0c0.1-0.5,0.3-0.9,0.4-1.4c1,0,2.1,0,3.1,0
		C47.9,78.5,47.9,79,47.8,79.4z M48.3,82.5c0.1-0.5,0.2-1.1,0.4-1.6c1.1,0,2.3,0,3.4-0.1c0,0.6,0.1,1.2,0.2,1.8
		C50.9,82.6,49.6,82.6,48.3,82.5z M52.1,79.5c-1.1,0-2.1,0-3.2,0c0.1-0.5,0.2-1,0.3-1.4c1,0,2,0,3,0C52.2,78.5,52.2,79,52.1,79.5z
		 M52.4,76.7c-0.9,0-1.9-0.1-2.8-0.1c0.2-0.8,0.4-1.6,0.6-2.4c0.9,0,1.7,0,2.6,0C52.6,75.1,52.5,75.9,52.4,76.7z M52.8,82.6
		c0.2-0.6,0.3-1.2,0.4-1.8c1,0,1.9,0,2.9-0.1c0.1,0.7,0.2,1.3,0.3,1.9C55.2,82.6,54,82.6,52.8,82.6z M56.4,73.1
		c-0.7,0-1.4,0-2.1-0.1c0.1-0.5,0.2-0.9,0.2-1.4c0,0,0-0.1,0-0.1c0.7,0,1.4,0,2.2,0C56.6,72,56.5,72.6,56.4,73.1z M57.1,82.6
		c0.1-0.6,0.2-1.3,0.2-1.9c1.1,0,2.2,0,3.2-0.1c0.1,0.7,0.3,1.4,0.7,2c0,0,0,0,0,0C59.9,82.6,58.5,82.6,57.1,82.6z M101.9,76.9
		c0.3,0.7,0.6,1.3,1,1.9c-1.2,0-2.3,0-3.5,0c-0.2-0.6-0.5-1.1-0.7-1.7c1-0.1,1.9-0.1,2.9-0.2C101.7,77,101.8,76.9,101.9,76.9z
		 M93.3,74c0.9,0,1.8-0.1,2.8-0.1c0.3,0.7,0.6,1.3,0.9,2c-0.9,0-1.8,0.1-2.7,0.1C94,75.4,93.6,74.7,93.3,74z M94.3,78.9
		c-1.1,0-2.2,0-3.3,0.1c-0.2-0.5-0.5-0.9-0.6-1.3c0,0,0-0.1-0.1-0.1c1,0,2.1-0.1,3.1-0.1C93.7,77.9,94,78.4,94.3,78.9z M97.5,77.2
		c0.1,0.2,0.2,0.4,0.2,0.5c0.2,0.4,0.3,0.7,0.5,1.1c-0.9,0-1.8,0-2.6,0c-0.2-0.5-0.5-1-0.7-1.6C95.8,77.3,96.6,77.3,97.5,77.2z
		 M100.8,73.7c0.2,0.7,0.4,1.3,0.6,2c-1.1,0.1-2.2,0.1-3.3,0.2c-0.3-0.7-0.6-1.3-0.9-2c1.1,0,2.2-0.1,3.3-0.2
		C100.7,73.7,100.7,73.7,100.8,73.7z M100.2,71.1c0.1,0.5,0.2,1,0.3,1.5c-1.3,0.1-2.5,0.1-3.8,0.2c-0.2-0.5-0.5-1.1-0.7-1.6
		C97.4,71.1,98.8,71.1,100.2,71.1C100.2,71.1,100.2,71.1,100.2,71.1z M94.9,71.2c0.2,0.5,0.5,1.1,0.7,1.6c-0.9,0-1.9,0.1-2.8,0.1
		c-0.3-0.6-0.6-1.1-0.9-1.7C92.9,71.2,93.9,71.2,94.9,71.2z M92.8,76.1c-1,0-2,0.1-3.1,0.1c-0.3-0.7-0.7-1.4-1-2.1
		c1,0,2.1-0.1,3.1-0.1C92.1,74.8,92.4,75.5,92.8,76.1z M74.8,78c0.2,0.5,0.4,0.9,0.7,1.3c-1.3,0-2.5,0-3.8,0.1
		c-0.1-0.5-0.3-0.9-0.4-1.4C72.4,78,73.6,78,74.8,78z M70.9,76.8c-0.3-0.8-0.5-1.6-0.8-2.4c1,0,2.1,0,3.1,0c0.3,0.8,0.7,1.6,1,2.4
		C73.1,76.8,72,76.8,70.9,76.8z M74.5,74.4c1.1,0,2.2,0,3.4,0c0.4,0.8,0.7,1.6,1.1,2.3c-1.1,0-2.3,0.1-3.4,0.1
		C75.3,76,74.9,75.2,74.5,74.4z M79.7,77.9c0.2,0.4,0.5,0.9,0.8,1.3c-1.2,0-2.4,0-3.6,0.1c-0.2-0.4-0.4-0.9-0.6-1.3
		C77.4,77.9,78.5,77.9,79.7,77.9z M79.5,74.3c1.2,0,2.4,0,3.6-0.1c0.3,0.8,0.6,1.5,1,2.2c-1.1,0-2.2,0.1-3.4,0.1
		C80.3,75.9,79.9,75.1,79.5,74.3z M84.6,77.7c0.2,0.5,0.4,0.9,0.7,1.4c-1.2,0-2.3,0-3.5,0.1c-0.2-0.4-0.4-0.9-0.6-1.3
		C82.4,77.8,83.5,77.8,84.6,77.7z M84.5,74.3c1,0,2,0,3-0.1c0.3,0.7,0.6,1.4,0.9,2.2c-1,0-1.9,0.1-2.9,0.1
		C85.1,75.7,84.8,75,84.5,74.3z M88.9,77.6c0.2,0.5,0.4,1,0.6,1.4c-1,0-2,0-3,0.1c-0.2-0.5-0.4-0.9-0.6-1.4
		C87,77.7,87.9,77.6,88.9,77.6z M90.8,71.2c0.2,0.6,0.3,1.2,0.6,1.7c-1.1,0-2.2,0.1-3.3,0.1c-0.3-0.6-0.6-1.2-0.9-1.8
		C88.4,71.2,89.6,71.2,90.8,71.2z M86.3,71.3c0.2,0.6,0.5,1.2,0.7,1.8c-1,0-2,0.1-3,0.1c-0.3-0.6-0.6-1.2-0.9-1.9
		C84.1,71.3,85.2,71.3,86.3,71.3z M82,71.3c0.2,0.6,0.4,1.3,0.6,1.9c-1.2,0-2.5,0-3.7,0.1c-0.4-0.6-0.7-1.3-1.1-1.9
		C79.2,71.3,80.6,71.3,82,71.3z M76.6,71.4c0.2,0.6,0.5,1.3,0.8,1.9c-1.1,0-2.3,0-3.4,0c-0.3-0.6-0.6-1.3-1-1.9
		C74.2,71.4,75.4,71.4,76.6,71.4z M72.1,71.4c0.2,0.6,0.4,1.3,0.7,1.9c-1,0-2,0-3,0c-0.2-0.6-0.4-1.3-0.6-1.9
		C70.2,71.4,71.1,71.4,72.1,71.4z M68,71.4c0.1,0.6,0.3,1.2,0.5,1.9c-0.9,0-1.7,0-2.6,0c-0.1-0.8-0.2-1.4-0.3-1.8
		C66.3,71.4,67.1,71.4,68,71.4z M65.5,79.5c-1.2,0-2.3,0-3.5,0c0-0.5-0.1-1-0.1-1.5c1.1,0,2.3,0,3.4,0C65.4,78.5,65.4,79,65.5,79.5z
		 M65.1,76.5c0,0.1,0,0.3,0.1,0.4c-1.1,0-2.2,0-3.2,0c0-0.8,0-1.7,0-2.5c1,0,1.9,0,2.9,0C64.9,75.1,65,75.8,65.1,76.5z M62.2,71.5
		c0.8,0,1.6,0,2.4,0c0,0.6,0,1.2,0.1,1.8c-0.9,0-1.9,0-2.8,0c0-0.6,0-1.2-0.1-1.8C61.9,71.5,62,71.5,62.2,71.5z M61.5,82.6
		C61.5,82.6,61.5,82.6,61.5,82.6c0.4-0.6,0.5-1.3,0.5-2c1.2,0,2.4,0,3.7,0c0.1,0.7,0.3,1.4,0.5,2C64.6,82.6,63.1,82.6,61.5,82.6z
		 M66,74.4c0.9,0,1.8,0,2.7,0c0.2,0.8,0.5,1.6,0.7,2.5c-1,0-2,0-3,0C66.3,76,66.2,75.2,66,74.4z M66.6,78c1.1,0,2.2,0,3.3,0
		c0.2,0.5,0.3,0.9,0.5,1.4c-1.2,0-2.4,0-3.6,0.1C66.7,79,66.6,78.5,66.6,78z M66.9,82.6C66.9,82.6,66.9,82.6,66.9,82.6
		c0.1-0.1-0.1-0.2-0.2-0.2c0.2,0,0.2-0.8,0.1-1.8c1.3,0,2.7,0,4,0c0.3,0.7,0.7,1.4,1,2.1C70.2,82.6,68.6,82.6,66.9,82.6z M72.7,82.6
		c-0.2-0.7-0.4-1.4-0.6-2.1c1.3,0,2.7,0,4,0c0.4,0.7,0.8,1.4,1.2,2C75.7,82.6,74.2,82.6,72.7,82.6z M78.2,82.5
		c-0.3-0.7-0.6-1.4-0.9-2c1.3,0,2.6,0,3.9,0c0.4,0.7,0.8,1.4,1.3,2C81.1,82.5,79.6,82.5,78.2,82.5z M83.1,82.5
		c-0.3-0.7-0.5-1.3-0.8-2c1.2,0,2.4,0,3.6,0c0.4,0.7,0.7,1.3,1.1,2C85.8,82.4,84.5,82.5,83.1,82.5z M88,82.4c-0.3-0.7-0.6-1.3-0.8-2
		c1,0,2,0,3,0c0.3,0.7,0.6,1.4,1,1.9C90.1,82.3,89,82.4,88,82.4z M92.5,82.3c-0.2-0.6-0.5-1.3-0.8-1.9c1.1,0,2.3,0,3.4,0
		c0.4,0.6,0.8,1.3,1.2,1.9C95,82.2,93.8,82.3,92.5,82.3z M97.1,82c-0.3-0.6-0.6-1.1-0.8-1.7c0.9,0,1.7,0,2.6,0
		c0.4,0.7,0.8,1.3,1.5,1.8c-1.1,0-2.1,0.1-3.2,0.1C97.2,82.1,97.2,82,97.1,82z M101.2,82c0-0.1,0-0.1-0.1-0.2
		c-0.4-0.5-0.8-1-1.1-1.6c1.1,0,2.3,0,3.4-0.1c0.1,0,0.2,0,0.3-0.1c0.4,0.6,0.9,1.2,1.4,1.8C103.9,81.9,102.5,82,101.2,82z"/>
	<path class="st0" d="M71.4,90.3c-0.1-0.6-0.7-1.2-1-1.7c-0.4-0.7-0.7-1.5-1-2.3c0-0.2-0.1-0.4-0.2-0.5c-0.2-0.4-0.8-0.5-1-0.2
		c-2.3,0-4.5,0-6.8,0c-1.1,0-2.3,0-3.4,0c-1,0-3.5,0.4-4.3,0c-0.1-0.1-0.2,0-0.3,0c0,0-0.1,0.1-0.1,0.1c-0.2,0.2-0.2,0.5,0,0.7
		c-0.3,0.6-0.6,1.3-0.9,1.9c-0.3,0.7-0.8,1.4-1,2.2c-0.1,0.2,0.1,0.5,0.2,0.6c0.1,0.2,0.2,0.3,0.5,0.4c6.3,0.8,12.8,0.5,19.1,0.1
		C71.9,91.4,72,90.4,71.4,90.3z M52.8,90.4c0.7-1,1.2-2.4,1.4-3.6c1.6,0.5,4,0,5.6,0c2.9,0,5.7,0,8.6,0c0.2,0.8,0.5,1.6,0.9,2.2
		c0.2,0.4,0.5,0.9,0.9,1.2C64.4,90.5,58.6,90.3,52.8,90.4z"/>
	<path class="st0" d="M126,96.7C126,96.7,126,96.7,126,96.7c0-0.1-0.1-0.2-0.1-0.3c-3.5-3.9-1.6-7.9-1-12.5
		c0.5-3.4,0.3-7.1-1.1-10.3c-1.8-4.3-6.2-8.2-11-7.6c-0.2-0.9-0.6-1.7-1.5-1.7c-1,0-2.2,0.5-3.2,0.7c-0.3,0.1-1.1,0.2-1.3,0.4
		c0,0-0.2,0.2-0.2,0.3c0,0,0,0,0,0c0,0,0,0-0.1,0.1c0,0,0,0,0,0c-0.7-2.2-1.5-4.5-2.3-6.7c0-0.1-0.1-0.2-0.2-0.3
		c-0.2-17.4-1.4-34.8-1.6-52.2c0-0.4-0.3-0.7-0.7-0.7c-0.1-0.1-0.3-0.2-0.5-0.2C88,5.8,74.9,5.8,61.8,5.9C55.4,6,49.1,6.1,42.7,6.2
		c-6.6,0.1-13.4-0.2-20,0.6c-0.1-0.8-1.2-0.7-1.2,0c-0.1,9.3,0.2,18.6,0.3,27.9c0.1,4.5,0.1,9.1,0.2,13.6c0.1,4-0.2,8.3,0.4,12.2
		c-0.1,0-0.1,0.1-0.2,0.1c-3.9,5.1-7.1,10.7-10.2,16.3c-2.9,5.1-6.3,10.4-8.2,15.9c-0.1,0.3,0,0.5,0.2,0.6c-0.4,2-0.6,4.7,0.2,6.4
		c0.2,0.5,1,0.7,1.3,0.3c8.6,1.3,17.6,0.7,26.3,0.8c9.3,0.1,18.7,0.1,28,0.1c18.7,0,37.4-0.1,56.1-0.4c0.1,0,0.2,0,0.3,0
		c0.3,0.2,0.7,0.1,0.9-0.3c0.5-1.8,0.4-3.8,0.2-5.7c0-0.4-0.3-0.6-0.5-0.7c0,0,0,0,0,0c-0.1-0.7-0.2-1.3-0.4-2
		c0-0.2-0.2-0.4-0.3-0.5c0-0.1,0-0.2-0.1-0.2c-3.2-7-5.7-14.1-8.2-21.3c1.6-0.4,3.2-0.8,4.8-1.1c0.2-0.1,0.4-0.3,0.4-0.6
		c0-0.4,0-0.8-0.1-1.3c8.7,2,11.8,9.6,10.2,18.1c-0.8,4-2.6,9.9,2.1,12.3c-7.6,6,6.8,23.5,15.4,17.1
		C151.5,106.4,135.9,92.1,126,96.7z M41.9,7.5c6.6-0.1,13.2-0.2,19.8-0.2c13-0.1,26.1-0.1,39.1,0.1c0.2,17.1,0.3,34.5,2,51.6
		c-13.3,0.4-26.7,0.9-40,1.3c-6.2,0.2-12.4,0.3-18.5,0.5c-3.5,0.1-7.1,0.3-10.6,0.3c-1.9,0.1-9.7,1.3-10.5-0.4
		c0-0.1-0.1-0.1-0.2-0.1c0,0-0.1-0.1-0.1-0.1c0.6-3.7,0.2-7.7,0.2-11.4c0-4.8-0.1-9.6-0.1-14.3c-0.1-9.1,0-18.3-0.3-27.4
		C29.1,8,35.6,7.6,41.9,7.5z M115.7,98.7c-18.4,0.3-36.8,0.6-55.2,0.7c-9.1,0-18.2,0-27.3-0.1c-9.1-0.1-18.6-1-27.6,0.1
		c0.1-1-0.1-1.9-0.1-2.9c0-1.1-0.1-2.1-0.2-3.2c18.3,1.5,36.7,1.6,55,1.8c18.4,0.2,36.8,0.2,55.3-0.1
		C115.7,96.2,115.7,97.5,115.7,98.7z M114.6,91.9c0,0.1,0.1,0.1,0.1,0.2c0,0.1,0,0.1,0,0.2c0,0.3,0.1,0.6,0.2,0.9
		c-18.2,0.3-36.3,0.4-54.5,0.2c-18.2-0.2-36.4-1.1-54.6-1.2c3.1-4.8,5.4-10.1,8.2-15c3-5.2,6.2-10.3,9-15.6c0.2,0.5,0.7,0.6,1.5,0.8
		c3.3,0.7,7.4-0.1,10.7-0.1c7.4-0.1,14.8-0.3,22.1-0.5c15.2-0.4,30.5-0.6,45.7-1c0.1,0,0.3,0,0.4-0.1
		C105.4,71.4,109.8,82.1,114.6,91.9z M107.3,68.7c-0.3-0.9-0.6-1.7-0.9-2.6c0.5,0.7,1.7,0.1,2.3,0c0.7-0.2,1.4-0.4,2.1-0.5
		c0.8,0,0.7,0.3,0.8,0.9c0.1,0.4,0.1,0.8,0.1,1.1C110.3,68.1,108.8,68.4,107.3,68.7z M135.1,98c-1.1,0.8-1.9,1.8-2.7,2.9
		c-0.2-0.2-0.3-0.3-0.6-0.4c-0.6-0.3-1.3-0.1-1.7,0.3c-1.1-1.2-2.3-2.4-3.7-3.3C129.6,96.8,132.5,96.9,135.1,98z M131.9,102.3
		c-0.1,0.4-0.5,0.8-1,0.7c-0.6-0.2-0.7-0.8-0.6-1.4c0.2,0,0.3-0.2,0.3-0.4C131.2,101.1,132.1,101.5,131.9,102.3z M126,97.9
		c1.1,1.3,2.4,2.4,3.6,3.4c0,0-0.1,0.1-0.1,0.1c-0.4,0.7,0,1.6,0.6,2.1c-0.6,0.5-1.2,1-1.8,1.5c-0.7,0.6-1.4,1.2-2.1,1.9
		C124.5,104.1,124,100.9,126,97.9z M140.7,112.4c-4.3,4.1-9.3,1.1-12.5-2.6c-0.7-0.8-1.2-1.5-1.8-2.4c1.5-0.9,3.2-2.1,4.2-3.6
		c0.9,0.3,1.8-0.2,2.1-1.1c0.2-0.4,0.2-0.8,0.1-1.2c1-1.2,2.2-2.2,3.4-3.1c1.2,0.6,2.3,1.4,3.3,2.4
		C143,104.3,144.6,108.6,140.7,112.4z"/>
</g>
</svg>
