<?xml version="1.0" encoding="utf-8"?>
<!-- Generator: Adobe Illustrator 19.1.1, SVG Export Plug-In . SVG Version: 6.00 Build 0)  -->
<svg version="1.1" id="Calque_1" xmlns="http://www.w3.org/2000/svg" xmlns:xlink="http://www.w3.org/1999/xlink" x="0px" y="0px"
	 viewBox="0 0 79.5 66" style="enable-background:new 0 0 79.5 66;" xml:space="preserve">
<style type="text/css">
	.st0{fill:#1D1D1B;}
</style>
<g>
	<path class="st0" d="M74,32.5c-5-4.9-10.8-9-16.2-13.4c-5.5-4.4-10.8-8.9-16.4-13.2c-0.2-0.2-0.5-0.2-0.7-0.2
		c-0.1-0.1-0.2-0.2-0.4-0.3c-4.8-1.6-9.9-3-14.8-4.1c-0.1,0-0.2,0-0.3,0c0,0-0.1-0.1-0.1-0.1c-0.2-0.3-0.8-0.1-0.6,0.3
		c0,0.1,0,0.1,0.1,0.1c-0.1,0-0.1,0-0.2,0.1c-5.8,5.9-11.6,11.9-17.2,18c-1.3,1.4-8.2,7.1-5.7,9.6c0,0.2,0,0.3,0.1,0.5
		c6.2,6.7,14.3,12.2,21.4,18c7.2,5.9,14.3,11.9,21.5,17.9c0.3,0.2,0.6,0.2,0.8,0.1c1.5,0.7,2.6,0,3.8-1.2c3.1-3,5.6-6.6,8.4-9.9
		c5.5-6.7,11-13.3,16.3-20.2c0.3-0.4,0.2-0.8-0.1-1.1C74,33.4,74.4,32.9,74,32.5z M37.3,5.9c-1,0.9-2,1.8-3,2.8
		c-0.7,0.7-1.4,1.6-2.2,2.2c-0.9,0.7-0.6,0.9-1.4,0.2c-1.1-0.8-1.9-3.6-2.6-4.8C27.5,5,26.8,3.8,26,2.6C29.7,3.9,33.5,5,37.3,5.9z
		 M72.6,33.4c-4.3,5.4-8.7,10.9-13.1,16.3c-2.1,2.6-4.3,5.2-6.5,7.7c-1.4,1.6-4.9,7.2-7.4,7.3c0-0.1-0.1-0.1-0.2-0.2
		c-7.4-6.1-14.9-12.1-22.2-18.2C16.5,40.6,9.9,34,2.5,29.2c-0.8-2.8,3.4-6,5.1-7.9c1.9-2,3.7-4.1,5.6-6.1c3.9-4.2,7.7-8.6,11.5-12.9
		c0.9,2.2,1.9,4.2,2.9,6.3c0.6,1.2,1.4,4.2,2.9,4.8c1.1,0.5,2-0.6,2.7-1.3c1.9-1.8,3.8-3.7,5.5-5.7c0.4,0.1,0.8,0.2,1.2,0.3
		c0,0,0,0,0,0c0,0.2,0.1,0.3,0.3,0.5c5.6,4.7,11.3,9.1,17,13.7c5.2,4.2,10.3,8.8,15.9,12.4C73,33.1,72.8,33.2,72.6,33.4z"/>
	<path class="st0" d="M25.4,12c-2.6,2.4-4.9,5.3-7.3,7.9c-2.5,2.6-5,5.1-7.5,7.8c-0.3,0.3,0.1,0.8,0.5,0.5c5.3-4.4,11.1-9.9,15-15.7
		C26.3,12.1,25.7,11.7,25.4,12z"/>
	<path class="st0" d="M29.7,15.5c-5.2,4.7-10,10.3-14.5,15.7c-0.3,0.3,0.1,0.8,0.5,0.5c5.3-4.6,10.7-9.8,14.8-15.5
		C30.8,15.6,30.1,15.2,29.7,15.5z"/>
	<path class="st0" d="M39.9,12.8C33,20,25.5,26.9,19.7,35c-0.3,0.4,0.3,0.9,0.7,0.5c7.4-6.7,13.5-14.7,20.3-22.1
		C41.1,13,40.4,12.3,39.9,12.8z"/>
	<path class="st0" d="M44.3,16.2c-6.5,7.9-13.7,15.2-20.3,23c-0.4,0.4,0.2,1,0.6,0.6c7.7-6.8,14.3-14.7,20.8-22.5
		C46,16.6,45,15.5,44.3,16.2z"/>
	<path class="st0" d="M49,20.4c-7.4,6.6-14.3,15.1-19.9,23.2c-0.4,0.6,0.5,1.3,1,0.8c3.3-3.8,6.4-7.9,9.7-11.7
		c3.3-3.9,6.9-7.5,10-11.5C50.3,20.6,49.6,19.9,49,20.4z"/>
	<path class="st0" d="M53,23.4C46.4,31,39.9,39.2,34.3,47.6c-0.3,0.5,0.4,1.1,0.9,0.7c6.7-7.5,13.1-15.8,18.8-24.1
		C54.3,23.6,53.4,22.9,53,23.4z"/>
	<path class="st0" d="M58.7,27.8c-7.2,7.4-14,15.6-19.9,24c-0.4,0.6,0.5,1.3,1,0.7c6.6-8,13.2-15.9,19.8-23.9
		C60.2,28.1,59.3,27.2,58.7,27.8z"/>
	<path class="st0" d="M64.4,31.9c-7,7.7-13.7,15.8-19.9,24.1c-0.4,0.5,0.4,1.1,0.9,0.7c7-7.6,13.7-15.6,20.2-23.6
		C66.2,32.3,65.1,31.1,64.4,31.9z"/>
</g>
</svg>
