<?xml version="1.0" encoding="utf-8"?>
<!-- Generator: Adobe Illustrator 19.1.1, SVG Export Plug-In . SVG Version: 6.00 Build 0)  -->
<svg version="1.1" id="Calque_1" xmlns="http://www.w3.org/2000/svg" xmlns:xlink="http://www.w3.org/1999/xlink" x="0px" y="0px"
	 viewBox="0 0 144 200" style="enable-background:new 0 0 144 200;" xml:space="preserve">
<style type="text/css">
	.st0{fill:#6D6D6D;}
</style>
<g>
	<g id="XMLID_1_">
		<g>
			<path class="st0" d="M138.5,70.2c0,13.8-9.4,36.2-28.7,68.6c-13.7,22.9-27.1,42-27.7,42.8l-9.8,13.9l-9.8-13.9
				c-0.6-0.8-14-19.9-27.7-42.8C15.4,106.4,6,84,6,70.2C6,36,35.7,8.3,72.2,8.3C108.8,8.3,138.5,36,138.5,70.2z M106.6,69.8
				c0-17.7-15.4-32.1-34.3-32.1c-19,0-34.3,14.4-34.3,32.1c0,17.7,15.4,32.1,34.3,32.1C91.2,101.9,106.6,87.5,106.6,69.8z"/>
		</g>
		<g>
		</g>
	</g>
</g>
</svg>
