<svg id="Calque_1" xmlns="http://www.w3.org/2000/svg" xmlns:xlink="http://www.w3.org/1999/xlink" viewBox="0 0 595.3 841.9"><style>.st0{fill:none;stroke:black;stroke-miterlimit:10;} .st1{fill:url(#SVGID_1_);}</style><image xlink:href="724A3562.png" transform="matrix(.24 0 0 .24 -10.59 423.78)" /><path class="st0" d="M453.1 450.1l-15.6-11.7-15.5 11.7-15.5-11.7-15.5 11.7-15.5-11.7-15.5 11.7-15.5-11.7-15.5 11.7-15.5-11.7-15.5 11.7-15.5-11.7-15.5 11.7-15.5-11.7-15.6 11.7-15.5-11.7-15.5 11.7-15.5-11.7-15.5 11.7-15.5-11.7-15.5 11.7-15.5-11.7-15.5 11.7-15.5-11.7-15.5 11.7-15.5-11.7-15.5 11.7-15.5-11.7-15.5 11.7-15.8-11.8.5-.7L18.9 449l15.5-11.6L49.9 449l15.5-11.6L80.9 449l15.5-11.6 15.5 11.6 15.5-11.6 15.5 11.6 15.5-11.6 15.5 11.6 15.5-11.6 15.5 11.6 15.5-11.6 15.5 11.6 15.6-11.6L267 449l15.5-11.6L298 449l15.5-11.6L329 449l15.5-11.6L360 449l15.5-11.6L391 449l15.5-11.6L422 449l15.5-11.6 15.6 11.6 15.5-11.6 15.5 11.6 15.5-11.6 15.5 11.6 15.5-11.6 15.5 11.6 15.5-11.6 15.5 11.6 15.3-11.4.5.7-15.8 11.8-15.5-11.7-15.5 11.7-15.5-11.7-15.5 11.7-15.5-11.7-15.5 11.7-15.5-11.7z"/></svg>
